<svg width="33" height="32" viewBox="0 0 33 32" fill="none" xmlns="http://www.w3.org/2000/svg">
<path fill-rule="evenodd" clip-rule="evenodd" d="M10.5 5H16.5H22.5V11C22.5 13.6153 21.9031 15.9087 20.851 17.5145C19.8189 19.0899 18.3624 20 16.5 20C14.6376 20 13.1811 19.0899 12.149 17.5145C11.0969 15.9087 10.5 13.6153 10.5 11V5ZM24.5 3H16.5H8.5V6H3.5V9.91177C3.5 12.2694 3.99996 14.0206 5.24226 15.1371C6.33055 16.1152 7.80472 16.4333 9.41592 16.4901C9.70181 17.2556 10.055 17.9679 10.476 18.6105C11.644 20.3932 13.342 21.639 15.5 21.9332V27H9.5V29H23.5V27H17.5V21.9332C19.658 21.639 21.356 20.3932 22.524 18.6105C22.945 17.9679 23.2982 17.2556 23.5841 16.4901C25.1953 16.4333 26.6695 16.1152 27.7577 15.1371C29 14.0206 29.5 12.2694 29.5 9.91177V6H24.5V3ZM5.5 8H8.5V11C8.5 12.1921 8.61153 13.3537 8.83577 14.449C7.77261 14.3452 7.05995 14.0817 6.57917 13.6496C5.96432 13.097 5.5 12.0542 5.5 9.91177V8ZM24.5 8V11C24.5 12.1921 24.3885 13.3537 24.1642 14.449C25.2274 14.3452 25.94 14.0817 26.4208 13.6496C27.0357 13.097 27.5 12.0542 27.5 9.91177V8H24.5Z" fill="#311E27"/>
</svg>
