<svg width="32" height="32" viewBox="0 0 32 32" fill="none" xmlns="http://www.w3.org/2000/svg">
<path fill-rule="evenodd" clip-rule="evenodd" d="M16 26.5C21.799 26.5 26.5 21.799 26.5 16C26.5 10.201 21.799 5.5 16 5.5C10.201 5.5 5.5 10.201 5.5 16C5.5 21.799 10.201 26.5 16 26.5ZM16 28.5C22.9036 28.5 28.5 22.9036 28.5 16C28.5 9.09644 22.9036 3.5 16 3.5C9.09644 3.5 3.5 9.09644 3.5 16C3.5 22.9036 9.09644 28.5 16 28.5Z" fill="#311E27"/>
<path d="M15.1048 18.664L14.8808 9H17.0728L16.8328 18.664H15.1048ZM16.0168 22.312C15.6328 22.312 15.3181 22.1947 15.0728 21.96C14.8381 21.7253 14.7208 21.4427 14.7208 21.112C14.7208 20.7707 14.8381 20.4827 15.0728 20.248C15.3181 20.0133 15.6328 19.896 16.0168 19.896C16.3795 19.896 16.6781 20.0133 16.9128 20.248C17.1581 20.4827 17.2808 20.7707 17.2808 21.112C17.2808 21.4427 17.1581 21.7253 16.9128 21.96C16.6781 22.1947 16.3795 22.312 16.0168 22.312Z" fill="#311E27"/>
</svg>
