<svg width="32" height="32" viewBox="0 0 32 32" fill="none" xmlns="http://www.w3.org/2000/svg">
<path fill-rule="evenodd" clip-rule="evenodd" d="M9.77004 20.3185C8.46983 21.9084 7.54657 23.9102 7.17784 26H24.8222C24.4534 23.9102 23.5302 21.9084 22.23 20.3185C20.518 18.2251 18.2941 17 16 17C13.7059 17 11.482 18.2251 9.77004 20.3185ZM26.8486 26C25.9775 20.2131 21.4519 15 16 15C10.5481 15 6.0225 20.2131 5.1514 26C5.05182 26.6615 5 27.3305 5 28H27C27 27.3305 26.9482 26.6615 26.8486 26Z" fill="#311E27"/>
<path fill-rule="evenodd" clip-rule="evenodd" d="M15.9546 15C18.4399 15 20.4546 12.9853 20.4546 10.5C20.4546 8.01472 18.4399 6 15.9546 6C13.4693 6 11.4546 8.01472 11.4546 10.5C11.4546 12.9853 13.4693 15 15.9546 15ZM15.9546 17C19.5444 17 22.4546 14.0899 22.4546 10.5C22.4546 6.91015 19.5444 4 15.9546 4C12.3647 4 9.45459 6.91015 9.45459 10.5C9.45459 14.0899 12.3647 17 15.9546 17Z" fill="#311E27"/>
</svg>
